<mxfile host="app.diagrams.net" modified="2024-06-24T00:07:01.970Z" agent="Mozilla/5.0 (Windows NT 10.0; Win64; x64) AppleWebKit/537.36 (KHTML, like Gecko) Chrome/125.0.0.0 Safari/537.36 Edg/125.0.0.0" etag="Ar6pPHwe_EyHGeh4jYbD" version="24.6.2" type="device">
  <diagram id="T3wb09TkJcfDdkeaGVoH" name="Page-1">
    <mxGraphModel dx="1744" dy="2194" grid="1" gridSize="10" guides="1" tooltips="1" connect="1" arrows="1" fold="1" page="1" pageScale="1" pageWidth="827" pageHeight="1169" math="0" shadow="0">
      <root>
        <mxCell id="0" />
        <mxCell id="1" parent="0" />
        <mxCell id="LHJOTtFuxEV-juLAqGJm-3" value="" style="edgeStyle=orthogonalEdgeStyle;rounded=0;orthogonalLoop=1;jettySize=auto;html=1;" edge="1" parent="1" source="QlriZnW1DoMX1YThp62q-3" target="LHJOTtFuxEV-juLAqGJm-2">
          <mxGeometry relative="1" as="geometry" />
        </mxCell>
        <mxCell id="QlriZnW1DoMX1YThp62q-3" value="HTML Prototype" style="rounded=1;whiteSpace=wrap;html=1;" parent="1" vertex="1">
          <mxGeometry x="235" y="-1070" width="120" height="60" as="geometry" />
        </mxCell>
        <mxCell id="QlriZnW1DoMX1YThp62q-9" value="" style="edgeStyle=orthogonalEdgeStyle;rounded=0;orthogonalLoop=1;jettySize=auto;html=1;" parent="1" source="QlriZnW1DoMX1YThp62q-4" target="QlriZnW1DoMX1YThp62q-8" edge="1">
          <mxGeometry relative="1" as="geometry" />
        </mxCell>
        <mxCell id="QlriZnW1DoMX1YThp62q-4" value="&lt;div style=&quot;color: rgb(204, 204, 204); background-color: rgb(31, 31, 31); font-family: Consolas, &amp;quot;Courier New&amp;quot;, monospace; font-size: 14px; line-height: 19px; white-space: pre;&quot;&gt;&lt;span style=&quot;color: #569cd6;&quot;&gt;this&lt;/span&gt;.&lt;span style=&quot;color: #4fc1ff;&quot;&gt;shadowRoot&lt;/span&gt;.&lt;span style=&quot;color: #9cdcfe;&quot;&gt;innerHTML&lt;/span&gt; &lt;span style=&quot;color: #d4d4d4;&quot;&gt;=&lt;/span&gt; &lt;/div&gt;" style="whiteSpace=wrap;html=1;rounded=1;" parent="1" vertex="1">
          <mxGeometry x="160" y="-690" width="270" height="60" as="geometry" />
        </mxCell>
        <mxCell id="QlriZnW1DoMX1YThp62q-11" value="" style="edgeStyle=orthogonalEdgeStyle;rounded=0;orthogonalLoop=1;jettySize=auto;html=1;entryX=0.5;entryY=0;entryDx=0;entryDy=0;" parent="1" source="QlriZnW1DoMX1YThp62q-8" target="LHJOTtFuxEV-juLAqGJm-9" edge="1">
          <mxGeometry relative="1" as="geometry">
            <mxPoint x="295" y="-410" as="targetPoint" />
          </mxGeometry>
        </mxCell>
        <mxCell id="QlriZnW1DoMX1YThp62q-8" value="functions added for buttons in Modal" style="whiteSpace=wrap;html=1;rounded=1;" parent="1" vertex="1">
          <mxGeometry x="160" y="-550" width="270" height="60" as="geometry" />
        </mxCell>
        <mxCell id="QlriZnW1DoMX1YThp62q-13" value="" style="endArrow=none;dashed=1;html=1;dashPattern=1 3;strokeWidth=2;rounded=0;exitX=1;exitY=0.5;exitDx=0;exitDy=0;entryX=0;entryY=0.5;entryDx=0;entryDy=0;" parent="1" source="QlriZnW1DoMX1YThp62q-4" target="LHJOTtFuxEV-juLAqGJm-8" edge="1">
          <mxGeometry width="50" height="50" relative="1" as="geometry">
            <mxPoint x="450" y="-648" as="sourcePoint" />
            <mxPoint x="650" y="-660" as="targetPoint" />
          </mxGeometry>
        </mxCell>
        <mxCell id="LHJOTtFuxEV-juLAqGJm-5" value="" style="edgeStyle=orthogonalEdgeStyle;rounded=0;orthogonalLoop=1;jettySize=auto;html=1;" edge="1" parent="1" source="LHJOTtFuxEV-juLAqGJm-2" target="LHJOTtFuxEV-juLAqGJm-4">
          <mxGeometry relative="1" as="geometry" />
        </mxCell>
        <mxCell id="LHJOTtFuxEV-juLAqGJm-2" value="Extend&amp;nbsp; with super()" style="whiteSpace=wrap;html=1;rounded=1;" vertex="1" parent="1">
          <mxGeometry x="235" y="-930" width="120" height="60" as="geometry" />
        </mxCell>
        <mxCell id="LHJOTtFuxEV-juLAqGJm-7" style="edgeStyle=orthogonalEdgeStyle;rounded=0;orthogonalLoop=1;jettySize=auto;html=1;exitX=0.5;exitY=1;exitDx=0;exitDy=0;entryX=0.5;entryY=0;entryDx=0;entryDy=0;" edge="1" parent="1" source="LHJOTtFuxEV-juLAqGJm-4" target="QlriZnW1DoMX1YThp62q-4">
          <mxGeometry relative="1" as="geometry" />
        </mxCell>
        <mxCell id="LHJOTtFuxEV-juLAqGJm-4" value="Add innerHTML with .shadowRoot" style="whiteSpace=wrap;html=1;rounded=1;" vertex="1" parent="1">
          <mxGeometry x="235" y="-790" width="120" height="60" as="geometry" />
        </mxCell>
        <mxCell id="LHJOTtFuxEV-juLAqGJm-8" value="Styles / Header / Section / slot for external interaction" style="rounded=1;whiteSpace=wrap;html=1;" vertex="1" parent="1">
          <mxGeometry x="680" y="-695" width="190" height="70" as="geometry" />
        </mxCell>
        <mxCell id="LHJOTtFuxEV-juLAqGJm-9" value="define &amp;lt;uc-modal&amp;gt;" style="whiteSpace=wrap;html=1;rounded=1;" vertex="1" parent="1">
          <mxGeometry x="160" y="-400" width="270" height="60" as="geometry" />
        </mxCell>
        <mxCell id="LHJOTtFuxEV-juLAqGJm-12" value="" style="endArrow=none;dashed=1;html=1;dashPattern=1 3;strokeWidth=2;rounded=0;exitX=1;exitY=0.5;exitDx=0;exitDy=0;entryX=0.5;entryY=1;entryDx=0;entryDy=0;" edge="1" parent="1" source="QlriZnW1DoMX1YThp62q-8" target="LHJOTtFuxEV-juLAqGJm-8">
          <mxGeometry width="50" height="50" relative="1" as="geometry">
            <mxPoint x="450" y="-520.62" as="sourcePoint" />
            <mxPoint x="700" y="-520.62" as="targetPoint" />
            <Array as="points">
              <mxPoint x="775" y="-520" />
            </Array>
          </mxGeometry>
        </mxCell>
      </root>
    </mxGraphModel>
  </diagram>
</mxfile>
